<?xml version="1.0" encoding="utf-8"?>
<!-- Generator: Adobe Illustrator 15.0.2, SVG Export Plug-In . SVG Version: 6.00 Build 0)  -->
<!DOCTYPE svg PUBLIC "-//W3C//DTD SVG 1.1//EN" "http://www.w3.org/Graphics/SVG/1.1/DTD/svg11.dtd">
<svg version="1.1" id="Layer_1" xmlns="http://www.w3.org/2000/svg" xmlns:xlink="http://www.w3.org/1999/xlink" x="0px" y="0px"
	 width="1110px" height="618px" viewBox="0 0 1110 618" enable-background="new 0 0 1110 618" xml:space="preserve">
<g id="grating_1_">
</g>
<g id="big_lens_guides">
</g>
<path fill="#CCCCCC" stroke="#000000" stroke-width="3" stroke-miterlimit="10" d="M929.499,207.287
	c-86.013-35.271-221.539-58.02-373.999-58.02s-287.987,22.749-374,58.021v72.443c86.01-25.493,221.526-41.94,374-41.94
	c152.473,0,287.989,16.446,373.999,41.94V207.287z"/>
<rect x="188.167" y="209.458" fill="#FFFFFF" width="733.666" height="24"/>
<polygon fill="#DCA8FF" points="795.412,227.453 770.361,209.458 762.361,209.458 737.324,227.453 712.275,209.458 704.275,209.458 
	679.236,227.453 654.189,209.458 646.189,209.458 621.148,227.453 596.104,209.458 588.104,209.458 563.061,227.453 
	538.017,209.458 530.017,209.458 504.973,227.453 534,215.375 559.061,233.458 567.061,233.458 591.75,215.375 617.25,233.125 
	625.146,233.458 649.5,215.375 675.25,233.125 683.232,233.458 708.5,215.625 733,233.375 741.318,233.458 766.25,215.375 
	791,233.375 799.404,233.458 824.25,215.375 848.939,233.458 856.939,233.458 882,215.375 911.027,227.453 885.983,209.458 
	877.983,209.458 852.939,227.453 828.447,209.458 820.447,209.458 "/>
<polygon fill="#DCA8FF" stroke="#000000" stroke-miterlimit="10" points="625.46,261.787 569.834,317.412 514.208,261.787 
	545.501,261.787 545.501,244.454 594.167,244.454 594.167,261.787 "/>
<polygon fill="#DCA8FF" stroke="#000000" stroke-miterlimit="10" points="896.937,240.289 887.937,249.288 878.937,240.289 
	869.937,249.288 860.937,240.289 848.511,252.714 853.5,252.714 853.5,287.871 868.374,287.871 868.374,252.714 871.5,252.714 
	871.5,287.871 886.374,287.871 886.374,252.714 889.5,252.714 889.5,287.871 904.374,287.871 904.374,252.714 909.362,252.714 "/>
<g>
	<rect x="500.667" y="226.953" fill="#00E6E3" width="138.333" height="7.005"/>
	<path d="M638.5,227.453v6.005H501.167v-6.005H638.5 M639.5,226.453h-1H501.167h-1v1v6.005v1h1H638.5h1v-1v-6.005V226.453
		L639.5,226.453z"/>
</g>
<g>
	<rect x="846.41" y="226.953" fill="#00E6E3" width="66.784" height="7.005"/>
	<path d="M912.694,227.453v6.005H846.91v-6.005H912.694 M913.694,226.453h-1H846.91h-1v1v6.005v1h1h65.784h1v-1v-6.005V226.453
		L913.694,226.453z"/>
</g>
<circle fill="none" stroke="#000000" stroke-width="1.5" stroke-miterlimit="10" cx="569.834" cy="429.643" r="88.511"/>
<ellipse fill="#BD5B35" stroke="#000000" stroke-width="1.5" stroke-miterlimit="10" cx="569.834" cy="363.685" rx="43.816" ry="24.56"/>
<ellipse cx="569.834" cy="355.752" rx="22.804" ry="11.51"/>
<polyline fill="none" stroke="#000000" stroke-width="1.5" stroke-miterlimit="10" points="921.833,233.458 921.833,209.458 
	188.167,209.458 188.167,233.458 "/>
<line fill="none" stroke="#000000" stroke-width="1.5" stroke-miterlimit="10" x1="188.167" y1="233.458" x2="921.833" y2="233.458"/>
<line fill="none" stroke="#000000" stroke-miterlimit="10" x1="214.5" y1="233.458" x2="214.5" y2="330.208"/>
<line fill="none" stroke="#000000" stroke-miterlimit="10" x1="655.402" y1="347.595" x2="634.227" y2="368.771"/>
<line fill="none" stroke="#000000" stroke-miterlimit="10" x1="268.5" y1="261.125" x2="268.5" y2="300.541"/>
<line fill="none" stroke="#000000" stroke-miterlimit="10" x1="505.973" y1="114.125" x2="505.973" y2="227.453"/>
<line fill="none" stroke="#000000" stroke-miterlimit="10" x1="702.192" y1="117.125" x2="702.192" y2="216.453"/>
<line fill="none" stroke="#000000" stroke-miterlimit="10" x1="898.5" y1="114.125" x2="898.5" y2="227.453"/>
<g>
	<path d="M505.901,106.075v-0.032c0-2.289,1.777-4.274,4.21-4.274c2.417,0,4.178,1.953,4.178,4.242v0.032
		c0,2.289-1.777,4.273-4.21,4.273C507.662,110.317,505.901,108.364,505.901,106.075z M513.44,106.075v-0.032
		c0-1.969-1.473-3.538-3.361-3.538c-1.937,0-3.329,1.584-3.329,3.505v0.032c0,1.969,1.473,3.537,3.361,3.537
		C512.048,109.581,513.44,107.996,513.44,106.075z"/>
	<path d="M517.182,106.956v-4.994h0.784v4.85c0,1.681,0.944,2.785,2.593,2.785c1.601,0,2.833-1.216,2.833-2.913v-4.722h0.784v8.163
		h-0.784v-1.521c-0.544,0.96-1.457,1.712-2.945,1.712C518.382,110.317,517.182,108.909,517.182,106.956z"/>
	<path d="M528.222,108.028v-5.346h-1.185v-0.72h1.185v-2.609h0.784v2.609h2.865v0.72h-2.865v5.266c0,1.168,0.688,1.584,1.633,1.584
		c0.4,0,0.736-0.08,1.2-0.288v0.736c-0.416,0.192-0.816,0.288-1.329,0.288C529.246,110.269,528.222,109.581,528.222,108.028z"/>
	<path d="M534.83,101.962h0.784v1.825c0.704-1.073,1.745-2.017,3.361-2.017c1.969,0,3.97,1.585,3.97,4.242v0.032
		c0,2.657-2.001,4.273-3.97,4.273c-1.633,0-2.689-0.928-3.361-1.953v4.322h-0.784V101.962z M542.096,106.075v-0.032
		c0-2.145-1.488-3.521-3.201-3.521c-1.697,0-3.329,1.424-3.329,3.505v0.032c0,2.097,1.632,3.505,3.329,3.505
		C540.672,109.565,542.096,108.268,542.096,106.075z"/>
	<path d="M545.869,106.956v-4.994h0.784v4.85c0,1.681,0.944,2.785,2.593,2.785c1.601,0,2.833-1.216,2.833-2.913v-4.722h0.784v8.163
		h-0.784v-1.521c-0.544,0.96-1.457,1.712-2.945,1.712C547.069,110.317,545.869,108.909,545.869,106.956z"/>
	<path d="M556.91,108.028v-5.346h-1.186v-0.72h1.186v-2.609h0.783v2.609h2.865v0.72h-2.865v5.266c0,1.168,0.689,1.584,1.633,1.584
		c0.4,0,0.736-0.08,1.201-0.288v0.736c-0.416,0.192-0.816,0.288-1.329,0.288C557.934,110.269,556.91,109.581,556.91,108.028z"/>
	<path d="M568.797,111.47l0.465-0.641c0.976,0.752,2.096,1.153,3.297,1.153c1.873,0,3.201-1.073,3.201-3.169v-1.185
		c-0.705,1.008-1.793,1.889-3.41,1.889c-1.969,0-3.921-1.504-3.921-3.841v-0.032c0-2.353,1.952-3.874,3.921-3.874
		c1.633,0,2.738,0.864,3.41,1.825v-1.632h0.784v6.898c0,1.185-0.384,2.113-1.04,2.769c-0.705,0.705-1.762,1.089-2.961,1.089
		C571.182,112.718,569.918,112.302,568.797,111.47z M575.808,105.659v-0.032c0-1.889-1.681-3.105-3.378-3.105
		c-1.712,0-3.152,1.185-3.152,3.089v0.032c0,1.841,1.473,3.122,3.152,3.122C574.127,108.765,575.808,107.516,575.808,105.659z"/>
	<path d="M580.156,101.962h0.785v2.321c0.64-1.457,2-2.513,3.617-2.449v0.865h-0.08c-1.889,0-3.537,1.424-3.537,4.082v3.345h-0.785
		V101.962z"/>
	<path d="M586.126,107.756v-0.032c0-1.697,1.456-2.657,3.569-2.657c1.137,0,1.921,0.144,2.705,0.352v-0.352
		c0-1.648-1.008-2.497-2.689-2.497c-0.992,0-1.809,0.272-2.561,0.656l-0.288-0.688c0.896-0.417,1.776-0.705,2.897-0.705
		c1.104,0,1.984,0.304,2.576,0.896c0.545,0.544,0.833,1.296,0.833,2.305v5.09H592.4v-1.36c-0.561,0.784-1.568,1.552-3.121,1.552
		C587.759,110.317,586.126,109.453,586.126,107.756z M592.416,107.068v-0.929c-0.688-0.176-1.6-0.368-2.769-0.368
		c-1.729,0-2.689,0.768-2.689,1.904v0.032c0,1.185,1.12,1.873,2.369,1.873C590.992,109.581,592.416,108.556,592.416,107.068z"/>
	<path d="M596.977,108.028v-5.346h-1.186v-0.72h1.186v-2.609h0.783v2.609h2.865v0.72h-2.865v5.266c0,1.168,0.689,1.584,1.633,1.584
		c0.4,0,0.736-0.08,1.201-0.288v0.736c-0.416,0.192-0.816,0.288-1.329,0.288C598,110.269,596.977,109.581,596.977,108.028z"/>
	<path d="M603.6,98.76h0.977v1.073H603.6V98.76z M603.695,101.962h0.785v8.163h-0.785V101.962z"/>
	<path d="M608.208,101.962h0.784v1.521c0.545-0.96,1.457-1.713,2.945-1.713c2.064,0,3.266,1.409,3.266,3.361v4.994h-0.785v-4.85
		c0-1.681-0.943-2.785-2.593-2.785c-1.601,0-2.833,1.217-2.833,2.914v4.722h-0.784V101.962z"/>
	<path d="M618.496,111.47l0.463-0.641c0.977,0.752,2.098,1.153,3.298,1.153c1.873,0,3.202-1.073,3.202-3.169v-1.185
		c-0.705,1.008-1.793,1.889-3.41,1.889c-1.969,0-3.922-1.504-3.922-3.841v-0.032c0-2.353,1.953-3.874,3.922-3.874
		c1.633,0,2.737,0.864,3.41,1.825v-1.632h0.783v6.898c0,1.185-0.384,2.113-1.04,2.769c-0.704,0.705-1.761,1.089-2.961,1.089
		C620.881,112.718,619.616,112.302,618.496,111.47z M625.506,105.659v-0.032c0-1.889-1.68-3.105-3.377-3.105
		c-1.713,0-3.153,1.185-3.153,3.089v0.032c0,1.841,1.473,3.122,3.153,3.122C623.826,108.765,625.506,107.516,625.506,105.659z"/>
</g>
<g>
	<path d="M268.989,305.349h0.784v1.825c0.704-1.073,1.745-2.017,3.361-2.017c1.969,0,3.97,1.585,3.97,4.242v0.032
		c0,2.657-2.001,4.273-3.97,4.273c-1.633,0-2.689-0.928-3.361-1.952v4.321h-0.784V305.349z M276.255,309.462v-0.032
		c0-2.145-1.488-3.521-3.201-3.521c-1.697,0-3.329,1.424-3.329,3.505v0.032c0,2.097,1.632,3.505,3.329,3.505
		C274.831,312.951,276.255,311.654,276.255,309.462z"/>
	<path d="M280.188,305.349h0.784v2.321c0.64-1.457,2.001-2.513,3.617-2.449v0.865h-0.08c-1.889,0-3.538,1.424-3.538,4.081v3.346
		h-0.784V305.349z"/>
	<path d="M286.27,309.446v-0.032c0-2.369,1.665-4.258,3.874-4.258c2.289,0,3.746,1.857,3.746,4.274c0,0.144,0,0.192-0.016,0.32
		h-6.771c0.144,2.033,1.601,3.217,3.201,3.217c1.265,0,2.129-0.56,2.801-1.279l0.544,0.479c-0.832,0.896-1.809,1.536-3.377,1.536
		C288.126,313.703,286.27,311.991,286.27,309.446z M293.041,309.046c-0.112-1.648-1.057-3.169-2.929-3.169
		c-1.617,0-2.865,1.361-3.009,3.169H293.041z"/>
	<path d="M296.109,312.487l0.464-0.624c0.896,0.688,1.889,1.072,2.929,1.072c1.104,0,1.969-0.608,1.969-1.553v-0.031
		c0-0.961-1.024-1.313-2.161-1.633c-1.329-0.385-2.801-0.785-2.801-2.242v-0.032c0-1.312,1.104-2.257,2.689-2.257
		c0.977,0,2.081,0.352,2.897,0.896l-0.416,0.656c-0.752-0.497-1.648-0.816-2.513-0.816c-1.121,0-1.857,0.608-1.857,1.424v0.032
		c0,0.912,1.104,1.249,2.273,1.584c1.312,0.368,2.689,0.849,2.689,2.289v0.032c0,1.456-1.249,2.385-2.817,2.385
		C298.271,313.672,296.974,313.191,296.109,312.487z"/>
	<path d="M304.845,309.462v-0.032c0-2.289,1.825-4.274,4.162-4.274c1.537,0,2.497,0.705,3.266,1.505l-0.561,0.576
		c-0.704-0.72-1.504-1.345-2.721-1.345c-1.857,0-3.297,1.553-3.297,3.505v0.032c0,1.968,1.488,3.537,3.361,3.537
		c1.152,0,2.049-0.592,2.737-1.359l0.544,0.479c-0.833,0.944-1.825,1.616-3.33,1.616
		C306.654,313.703,304.845,311.751,304.845,309.462z"/>
	<path d="M315.182,305.349h0.784v2.321c0.64-1.457,2.001-2.513,3.618-2.449v0.865h-0.08c-1.889,0-3.538,1.424-3.538,4.081v3.346
		h-0.784V305.349z"/>
	<path d="M322.237,302.147h0.977v1.073h-0.977V302.147z M322.333,305.349h0.784v8.163h-0.784V305.349z"/>
	<path d="M326.846,305.349h0.784v1.825c0.704-1.073,1.745-2.017,3.361-2.017c1.969,0,3.97,1.585,3.97,4.242v0.032
		c0,2.657-2.001,4.273-3.97,4.273c-1.633,0-2.689-0.928-3.361-1.952v4.321h-0.784V305.349z M334.112,309.462v-0.032
		c0-2.145-1.488-3.521-3.201-3.521c-1.697,0-3.329,1.424-3.329,3.505v0.032c0,2.097,1.632,3.505,3.329,3.505
		C332.688,312.951,334.112,311.654,334.112,309.462z"/>
	<path d="M338.478,311.415v-5.346h-1.185v-0.72h1.185v-2.609h0.784v2.609h2.865v0.72h-2.865v5.266c0,1.169,0.688,1.585,1.633,1.585
		c0.4,0,0.736-0.08,1.2-0.289v0.736c-0.416,0.192-0.816,0.289-1.329,0.289C339.502,313.656,338.478,312.967,338.478,311.415z"/>
	<path d="M345.101,302.147h0.977v1.073h-0.977V302.147z M345.197,305.349h0.784v8.163h-0.784V305.349z"/>
	<path d="M349.149,309.462v-0.032c0-2.289,1.777-4.274,4.21-4.274c2.417,0,4.178,1.953,4.178,4.242v0.032
		c0,2.289-1.777,4.273-4.21,4.273C350.91,313.703,349.149,311.751,349.149,309.462z M356.688,309.462v-0.032
		c0-1.969-1.473-3.538-3.361-3.538c-1.937,0-3.329,1.584-3.329,3.505v0.032c0,1.968,1.473,3.537,3.361,3.537
		C355.295,312.967,356.688,311.383,356.688,309.462z"/>
	<path d="M360.589,305.349h0.784v1.521c0.544-0.96,1.457-1.713,2.945-1.713c2.064,0,3.265,1.409,3.265,3.361v4.994H366.8v-4.85
		c0-1.681-0.944-2.785-2.593-2.785c-1.601,0-2.833,1.217-2.833,2.914v4.722h-0.784V305.349z"/>
	<path d="M376.589,301.827h0.784v11.685h-0.784V301.827z"/>
	<path d="M380.541,309.446v-0.032c0-2.369,1.665-4.258,3.874-4.258c2.289,0,3.746,1.857,3.746,4.274c0,0.144,0,0.192-0.016,0.32
		h-6.771c0.144,2.033,1.601,3.217,3.201,3.217c1.265,0,2.129-0.56,2.801-1.279l0.544,0.479c-0.832,0.896-1.809,1.536-3.377,1.536
		C382.397,313.703,380.541,311.991,380.541,309.446z M387.312,309.046c-0.112-1.648-1.057-3.169-2.929-3.169
		c-1.617,0-2.865,1.361-3.009,3.169H387.312z"/>
	<path d="M391.085,305.349h0.784v1.521c0.544-0.96,1.457-1.713,2.945-1.713c2.064,0,3.265,1.409,3.265,3.361v4.994h-0.784v-4.85
		c0-1.681-0.944-2.785-2.593-2.785c-1.601,0-2.833,1.217-2.833,2.914v4.722h-0.784V305.349z"/>
	<path d="M400.828,312.487l0.464-0.624c0.896,0.688,1.889,1.072,2.929,1.072c1.104,0,1.969-0.608,1.969-1.553v-0.031
		c0-0.961-1.024-1.313-2.161-1.633c-1.329-0.385-2.801-0.785-2.801-2.242v-0.032c0-1.312,1.104-2.257,2.689-2.257
		c0.977,0,2.081,0.352,2.897,0.896l-0.416,0.656c-0.752-0.497-1.648-0.816-2.513-0.816c-1.121,0-1.857,0.608-1.857,1.424v0.032
		c0,0.912,1.104,1.249,2.273,1.584c1.312,0.368,2.689,0.849,2.689,2.289v0.032c0,1.456-1.249,2.385-2.817,2.385
		C402.989,313.672,401.692,313.191,400.828,312.487z"/>
</g>
<g>
	<path d="M657.681,331.723h0.784v5.042c0.545-0.96,1.457-1.713,2.945-1.713c2.064,0,3.266,1.409,3.266,3.361v4.994h-0.785v-4.851
		c0-1.68-0.943-2.785-2.593-2.785c-1.601,0-2.833,1.217-2.833,2.914v4.722h-0.784V331.723z"/>
	<path d="M667.969,340.238v-4.994h0.783v4.85c0,1.681,0.945,2.785,2.594,2.785c1.601,0,2.833-1.217,2.833-2.913v-4.722h0.784v8.163
		h-0.784v-1.521c-0.544,0.961-1.456,1.713-2.945,1.713C669.168,343.6,667.969,342.191,667.969,340.238z"/>
	<path d="M678.576,335.244h0.784v1.457c0.528-0.85,1.265-1.649,2.722-1.649c1.424,0,2.305,0.816,2.752,1.761
		c0.529-0.912,1.409-1.761,2.945-1.761c1.938,0,3.138,1.36,3.138,3.409v4.946h-0.784v-4.851c0-1.76-0.912-2.785-2.417-2.785
		c-1.376,0-2.577,1.057-2.577,2.882v4.754h-0.784v-4.897c0-1.697-0.929-2.738-2.386-2.738c-1.456,0-2.608,1.281-2.608,2.93v4.706
		h-0.784V335.244z"/>
	<path d="M693.76,341.038v-0.032c0-1.696,1.457-2.656,3.569-2.656c1.137,0,1.921,0.144,2.705,0.352v-0.352
		c0-1.648-1.009-2.498-2.688-2.498c-0.993,0-1.809,0.273-2.562,0.656l-0.288-0.688c0.896-0.416,1.777-0.705,2.896-0.705
		c1.105,0,1.985,0.305,2.578,0.896c0.544,0.545,0.832,1.297,0.832,2.306v5.09h-0.769v-1.36c-0.56,0.784-1.568,1.553-3.121,1.553
		C695.393,343.6,693.76,342.734,693.76,341.038z M700.051,340.35v-0.928c-0.689-0.176-1.602-0.368-2.77-0.368
		c-1.729,0-2.689,0.769-2.689,1.904v0.032c0,1.185,1.121,1.873,2.369,1.873C698.625,342.863,700.051,341.838,700.051,340.35z"/>
	<path d="M704.256,335.244h0.784v1.521c0.544-0.96,1.456-1.713,2.945-1.713c2.064,0,3.265,1.409,3.265,3.361v4.994h-0.783v-4.851
		c0-1.68-0.945-2.785-2.594-2.785c-1.601,0-2.833,1.217-2.833,2.914v4.722h-0.784V335.244z"/>
	<path d="M719.583,339.342v-0.032c0-2.369,1.665-4.258,3.874-4.258c2.289,0,3.745,1.856,3.745,4.274c0,0.144,0,0.191-0.017,0.319
		h-6.77c0.144,2.033,1.6,3.218,3.201,3.218c1.264,0,2.129-0.561,2.801-1.281l0.544,0.48c-0.832,0.896-1.809,1.537-3.377,1.537
		C721.439,343.6,719.583,341.887,719.583,339.342z M726.354,338.941c-0.111-1.648-1.057-3.17-2.929-3.17
		c-1.616,0-2.865,1.361-3.009,3.17H726.354z"/>
	<path d="M729.105,345.664l0.271-0.688c0.433,0.207,0.785,0.303,1.393,0.303c0.849,0,1.408-0.496,2.018-1.92l-3.922-8.115h0.912
		l3.394,7.299l2.944-7.299h0.865l-3.537,8.451c-0.721,1.713-1.553,2.32-2.722,2.32C730.098,346.016,729.649,345.904,729.105,345.664
		z"/>
	<path d="M738.736,339.342v-0.032c0-2.369,1.665-4.258,3.873-4.258c2.289,0,3.746,1.856,3.746,4.274c0,0.144,0,0.191-0.016,0.319
		h-6.771c0.145,2.033,1.602,3.218,3.201,3.218c1.266,0,2.129-0.561,2.802-1.281l0.544,0.48c-0.832,0.896-1.809,1.537-3.377,1.537
		C740.594,343.6,738.736,341.887,738.736,339.342z M745.508,338.941c-0.113-1.648-1.057-3.17-2.93-3.17
		c-1.617,0-2.865,1.361-3.01,3.17H745.508z"/>
</g>
<g>
	<path d="M214.284,335.349h0.88l2.465,7.171l2.465-7.203h0.624l2.465,7.203l2.465-7.171h0.848l-2.993,8.228h-0.672l-2.433-6.995
		l-2.449,6.995h-0.672L214.284,335.349z"/>
	<path d="M228.412,341.143v-0.031c0-1.697,1.457-2.658,3.569-2.658c1.137,0,1.921,0.145,2.705,0.353v-0.353
		c0-1.648-1.008-2.496-2.689-2.496c-0.993,0-1.809,0.271-2.561,0.656l-0.288-0.688c0.896-0.417,1.776-0.704,2.897-0.704
		c1.104,0,1.985,0.304,2.577,0.896c0.544,0.544,0.833,1.296,0.833,2.305v5.09h-0.769v-1.36c-0.56,0.784-1.568,1.552-3.121,1.552
		C230.045,343.703,228.412,342.84,228.412,341.143z M234.703,340.455v-0.93c-0.688-0.176-1.601-0.367-2.769-0.367
		c-1.729,0-2.689,0.768-2.689,1.904v0.032c0,1.185,1.121,1.872,2.369,1.872C233.278,342.967,234.703,341.943,234.703,340.455z"/>
	<path d="M237.755,335.349h0.913l3.089,7.282l3.122-7.282h0.88l-3.666,8.228h-0.672L237.755,335.349z"/>
	<path d="M247.499,339.446v-0.032c0-2.369,1.665-4.258,3.874-4.258c2.289,0,3.746,1.857,3.746,4.273c0,0.145,0,0.192-0.016,0.32
		h-6.771c0.144,2.033,1.601,3.217,3.201,3.217c1.265,0,2.129-0.56,2.801-1.279l0.544,0.479c-0.832,0.896-1.809,1.536-3.377,1.536
		C249.355,343.703,247.499,341.991,247.499,339.446z M254.27,339.046c-0.112-1.648-1.057-3.169-2.929-3.169
		c-1.617,0-2.865,1.36-3.009,3.169H254.27z"/>
	<path d="M257.883,344.856l0.464-0.641c0.977,0.753,2.097,1.153,3.297,1.153c1.873,0,3.202-1.073,3.202-3.17v-1.185
		c-0.705,1.009-1.793,1.889-3.41,1.889c-1.969,0-3.921-1.505-3.921-3.841v-0.033c0-2.353,1.953-3.873,3.921-3.873
		c1.633,0,2.737,0.864,3.41,1.824v-1.632h0.784v6.898c0,1.185-0.384,2.112-1.041,2.769c-0.704,0.705-1.761,1.09-2.961,1.09
		C260.268,346.105,259.003,345.688,257.883,344.856z M264.894,339.046v-0.032c0-1.889-1.681-3.105-3.377-3.105
		c-1.712,0-3.153,1.186-3.153,3.09v0.031c0,1.842,1.473,3.122,3.153,3.122C263.213,342.151,264.894,340.902,264.894,339.046z"/>
	<path d="M269.083,340.342v-4.993h0.784v4.85c0,1.681,0.944,2.785,2.593,2.785c1.601,0,2.833-1.216,2.833-2.913v-4.722h0.784v8.163
		h-0.784v-1.521c-0.544,0.96-1.457,1.712-2.945,1.712C270.283,343.703,269.083,342.295,269.083,340.342z"/>
	<path d="M279.707,332.146h0.977v1.073h-0.977V332.146z M279.803,335.349h0.784v8.163h-0.784V335.349z"/>
	<path d="M283.787,339.462v-0.032c0-2.656,2.001-4.273,3.97-4.273c1.632,0,2.689,0.929,3.361,1.953v-5.282h0.784v11.685h-0.784
		v-1.824c-0.705,1.072-1.745,2.016-3.361,2.016C285.788,343.703,283.787,342.119,283.787,339.462z M291.166,339.446v-0.032
		c0-2.097-1.633-3.506-3.329-3.506c-1.777,0-3.202,1.297-3.202,3.49v0.031c0,2.145,1.489,3.521,3.202,3.521
		C289.533,342.951,291.166,341.527,291.166,339.446z"/>
	<path d="M294.954,339.446v-0.032c0-2.369,1.665-4.258,3.874-4.258c2.289,0,3.746,1.857,3.746,4.273c0,0.145,0,0.192-0.016,0.32
		h-6.771c0.144,2.033,1.601,3.217,3.201,3.217c1.265,0,2.129-0.56,2.801-1.279l0.544,0.479c-0.832,0.896-1.809,1.536-3.377,1.536
		C296.811,343.703,294.954,341.991,294.954,339.446z M301.725,339.046c-0.112-1.648-1.057-3.169-2.929-3.169
		c-1.617,0-2.865,1.36-3.009,3.169H301.725z"/>
</g>
<g>
	<path d="M687.793,98.44h0.784v11.685h-0.784V98.44z"/>
	<path d="M692.32,98.76h0.977v1.073h-0.977V98.76z M692.417,101.962h0.784v8.163h-0.784V101.962z"/>
	<path d="M696.769,111.47l0.464-0.641c0.977,0.752,2.098,1.153,3.297,1.153c1.873,0,3.202-1.073,3.202-3.169v-1.185
		c-0.704,1.008-1.793,1.889-3.409,1.889c-1.969,0-3.922-1.504-3.922-3.841v-0.032c0-2.353,1.953-3.874,3.922-3.874
		c1.633,0,2.736,0.864,3.409,1.825v-1.632h0.784v6.898c0,1.185-0.385,2.113-1.041,2.769c-0.703,0.705-1.76,1.089-2.961,1.089
		C699.153,112.718,697.889,112.302,696.769,111.47z M703.779,105.659v-0.032c0-1.889-1.681-3.105-3.377-3.105
		c-1.713,0-3.154,1.185-3.154,3.089v0.032c0,1.841,1.473,3.122,3.154,3.122C702.099,108.765,703.779,107.516,703.779,105.659z"/>
	<path d="M708.129,98.44h0.784v5.042c0.544-0.96,1.456-1.713,2.945-1.713c2.064,0,3.265,1.409,3.265,3.361v4.994h-0.783v-4.85
		c0-1.681-0.945-2.785-2.594-2.785c-1.601,0-2.833,1.217-2.833,2.914v4.722h-0.784V98.44z"/>
	<path d="M719.009,108.028v-5.346h-1.185v-0.72h1.185v-2.609h0.784v2.609h2.865v0.72h-2.865v5.266c0,1.168,0.688,1.584,1.633,1.584
		c0.4,0,0.736-0.08,1.2-0.288v0.736c-0.416,0.192-0.816,0.288-1.329,0.288C720.033,110.269,719.009,109.581,719.009,108.028z"/>
</g>
<g>
	<path d="M790.239,98.76h0.977v1.073h-0.977V98.76z M790.336,101.962h0.783v8.163h-0.783V101.962z"/>
	<path d="M794.848,101.962h0.784v1.521c0.544-0.96,1.456-1.713,2.945-1.713c2.064,0,3.265,1.409,3.265,3.361v4.994h-0.783v-4.85
		c0-1.681-0.945-2.785-2.594-2.785c-1.601,0-2.833,1.217-2.833,2.914v4.722h-0.784V101.962z"/>
	<path d="M805.295,101.962h0.785v1.825c0.703-1.073,1.744-2.017,3.361-2.017c1.969,0,3.969,1.585,3.969,4.242v0.032
		c0,2.657-2,4.273-3.969,4.273c-1.633,0-2.689-0.928-3.361-1.953v4.322h-0.785V101.962z M812.562,106.075v-0.032
		c0-2.145-1.488-3.521-3.201-3.521c-1.697,0-3.33,1.424-3.33,3.505v0.032c0,2.097,1.633,3.505,3.33,3.505
		C811.138,109.565,812.562,108.268,812.562,106.075z"/>
	<path d="M816.335,106.956v-4.994h0.784v4.85c0,1.681,0.944,2.785,2.594,2.785c1.6,0,2.832-1.216,2.832-2.913v-4.722h0.785v8.163
		h-0.785v-1.521c-0.544,0.96-1.456,1.712-2.945,1.712C817.535,110.317,816.335,108.909,816.335,106.956z"/>
	<path d="M827.375,108.028v-5.346h-1.185v-0.72h1.185v-2.609h0.784v2.609h2.865v0.72h-2.865v5.266c0,1.168,0.688,1.584,1.633,1.584
		c0.399,0,0.736-0.08,1.2-0.288v0.736c-0.416,0.192-0.816,0.288-1.328,0.288C828.399,110.269,827.375,109.581,827.375,108.028z"/>
	<path d="M839.263,111.47l0.464-0.641c0.977,0.752,2.098,1.153,3.297,1.153c1.873,0,3.202-1.073,3.202-3.169v-1.185
		c-0.704,1.008-1.793,1.889-3.409,1.889c-1.969,0-3.922-1.504-3.922-3.841v-0.032c0-2.353,1.953-3.874,3.922-3.874
		c1.633,0,2.736,0.864,3.409,1.825v-1.632h0.784v6.898c0,1.185-0.385,2.113-1.041,2.769c-0.703,0.705-1.76,1.089-2.961,1.089
		C841.647,112.718,840.383,112.302,839.263,111.47z M846.273,105.659v-0.032c0-1.889-1.681-3.105-3.377-3.105
		c-1.713,0-3.154,1.185-3.154,3.089v0.032c0,1.841,1.473,3.122,3.154,3.122C844.593,108.765,846.273,107.516,846.273,105.659z"/>
	<path d="M850.623,101.962h0.783v2.321c0.641-1.457,2.002-2.513,3.618-2.449v0.865h-0.08c-1.89,0-3.538,1.424-3.538,4.082v3.345
		h-0.783V101.962z"/>
	<path d="M856.592,107.756v-0.032c0-1.697,1.457-2.657,3.569-2.657c1.137,0,1.921,0.144,2.705,0.352v-0.352
		c0-1.648-1.009-2.497-2.688-2.497c-0.993,0-1.809,0.272-2.562,0.656l-0.288-0.688c0.896-0.417,1.776-0.705,2.896-0.705
		c1.105,0,1.985,0.304,2.578,0.896c0.544,0.544,0.832,1.296,0.832,2.305v5.09h-0.769v-1.36c-0.56,0.784-1.568,1.552-3.121,1.552
		C858.225,110.317,856.592,109.453,856.592,107.756z M862.883,107.068v-0.929c-0.689-0.176-1.602-0.368-2.77-0.368
		c-1.729,0-2.689,0.768-2.689,1.904v0.032c0,1.185,1.121,1.873,2.369,1.873C861.457,109.581,862.883,108.556,862.883,107.068z"/>
	<path d="M867.441,108.028v-5.346h-1.184v-0.72h1.184v-2.609h0.785v2.609h2.865v0.72h-2.865v5.266c0,1.168,0.688,1.584,1.633,1.584
		c0.399,0,0.736-0.08,1.199-0.288v0.736c-0.416,0.192-0.816,0.288-1.328,0.288C868.467,110.269,867.441,109.581,867.441,108.028z"/>
	<path d="M874.065,98.76h0.977v1.073h-0.977V98.76z M874.162,101.962h0.783v8.163h-0.783V101.962z"/>
	<path d="M878.674,101.962h0.783v1.521c0.545-0.96,1.457-1.713,2.945-1.713c2.064,0,3.266,1.409,3.266,3.361v4.994h-0.784v-4.85
		c0-1.681-0.944-2.785-2.593-2.785c-1.602,0-2.834,1.217-2.834,2.914v4.722h-0.783V101.962z"/>
	<path d="M888.961,111.47l0.465-0.641c0.977,0.752,2.097,1.153,3.297,1.153c1.873,0,3.201-1.073,3.201-3.169v-1.185
		c-0.704,1.008-1.793,1.889-3.409,1.889c-1.969,0-3.921-1.504-3.921-3.841v-0.032c0-2.353,1.952-3.874,3.921-3.874
		c1.633,0,2.737,0.864,3.409,1.825v-1.632h0.785v6.898c0,1.185-0.385,2.113-1.041,2.769c-0.704,0.705-1.761,1.089-2.961,1.089
		C891.346,112.718,890.082,112.302,888.961,111.47z M895.973,105.659v-0.032c0-1.889-1.682-3.105-3.378-3.105
		c-1.712,0-3.153,1.185-3.153,3.089v0.032c0,1.841,1.473,3.122,3.153,3.122C894.291,108.765,895.973,107.516,895.973,105.659z"/>
</g>
<g>
	<path d="M832.082,301.691h0.783v11.684h-0.783V301.691z"/>
	<path d="M836.609,302.011h0.977v1.073h-0.977V302.011z M836.705,305.212h0.785v8.163h-0.785V305.212z"/>
	<path d="M841.057,314.721l0.465-0.641c0.977,0.752,2.097,1.152,3.297,1.152c1.873,0,3.201-1.072,3.201-3.17v-1.184
		c-0.704,1.008-1.793,1.889-3.409,1.889c-1.969,0-3.921-1.505-3.921-3.842v-0.032c0-2.353,1.952-3.874,3.921-3.874
		c1.633,0,2.737,0.864,3.409,1.825v-1.632h0.785v6.899c0,1.184-0.385,2.112-1.041,2.769c-0.704,0.704-1.761,1.089-2.961,1.089
		C843.441,315.969,842.178,315.553,841.057,314.721z M848.068,308.91v-0.032c0-1.889-1.682-3.105-3.378-3.105
		c-1.712,0-3.153,1.185-3.153,3.089v0.032c0,1.841,1.473,3.122,3.153,3.122C846.387,312.016,848.068,310.767,848.068,308.91z"/>
	<path d="M852.418,301.691h0.783v5.042c0.545-0.96,1.457-1.713,2.945-1.713c2.064,0,3.266,1.409,3.266,3.361v4.994h-0.784v-4.85
		c0-1.681-0.944-2.785-2.593-2.785c-1.602,0-2.834,1.217-2.834,2.914v4.721h-0.783V301.691z"/>
	<path d="M863.297,311.279v-5.347h-1.184v-0.72h1.184v-2.609h0.785v2.609h2.865v0.72h-2.865v5.267c0,1.168,0.688,1.584,1.633,1.584
		c0.399,0,0.736-0.08,1.199-0.288v0.736c-0.416,0.192-0.816,0.288-1.328,0.288C864.322,313.52,863.297,312.831,863.297,311.279z"/>
	<path d="M874.784,309.31v-0.032c0-2.369,1.665-4.258,3.874-4.258c2.289,0,3.745,1.857,3.745,4.274c0,0.144,0,0.192-0.017,0.319
		h-6.77c0.144,2.033,1.6,3.218,3.201,3.218c1.264,0,2.129-0.56,2.801-1.28l0.544,0.48c-0.832,0.896-1.809,1.536-3.377,1.536
		C876.641,313.567,874.784,311.855,874.784,309.31z M881.555,308.91c-0.111-1.648-1.057-3.169-2.929-3.169
		c-1.616,0-2.865,1.361-3.009,3.169H881.555z"/>
	<path d="M885.329,305.212h0.784v1.521c0.544-0.96,1.457-1.713,2.945-1.713c2.064,0,3.266,1.409,3.266,3.361v4.994h-0.785v-4.85
		c0-1.681-0.943-2.785-2.593-2.785c-1.601,0-2.833,1.217-2.833,2.914v4.721h-0.784V305.212z"/>
	<path d="M895.617,314.721l0.464-0.641c0.976,0.752,2.097,1.152,3.297,1.152c1.873,0,3.202-1.072,3.202-3.17v-1.184
		c-0.705,1.008-1.793,1.889-3.41,1.889c-1.969,0-3.922-1.505-3.922-3.842v-0.032c0-2.353,1.953-3.874,3.922-3.874
		c1.633,0,2.737,0.864,3.41,1.825v-1.632h0.783v6.899c0,1.184-0.384,2.112-1.04,2.769c-0.704,0.704-1.761,1.089-2.961,1.089
		C898.002,315.969,896.737,315.553,895.617,314.721z M902.627,308.91v-0.032c0-1.889-1.68-3.105-3.377-3.105
		c-1.713,0-3.153,1.185-3.153,3.089v0.032c0,1.841,1.473,3.122,3.153,3.122C900.947,312.016,902.627,310.767,902.627,308.91z"/>
	<path d="M906.992,302.011h0.977v1.073h-0.977V302.011z M907.088,305.212h0.785v8.163h-0.785V305.212z"/>
	<path d="M911.601,305.212h0.784v1.521c0.544-0.96,1.457-1.713,2.945-1.713c2.064,0,3.266,1.409,3.266,3.361v4.994h-0.785v-4.85
		c0-1.681-0.943-2.785-2.593-2.785c-1.601,0-2.833,1.217-2.833,2.914v4.721h-0.784V305.212z"/>
	<path d="M921.488,309.31v-0.032c0-2.369,1.664-4.258,3.873-4.258c2.289,0,3.746,1.857,3.746,4.274c0,0.144,0,0.192-0.017,0.319
		h-6.771c0.145,2.033,1.601,3.218,3.201,3.218c1.265,0,2.129-0.56,2.801-1.28l0.545,0.48c-0.832,0.896-1.809,1.536-3.377,1.536
		C923.345,313.567,921.488,311.855,921.488,309.31z M928.259,308.91c-0.112-1.648-1.057-3.169-2.929-3.169
		c-1.617,0-2.865,1.361-3.01,3.169H928.259z"/>
	<path d="M817.704,327.982c0-2.898,1.616-5.25,4.435-6.852l0.336,0.528c-2.529,1.553-3.938,3.649-3.938,6.323
		c0,2.672,1.408,4.77,3.938,6.322l-0.336,0.527C819.32,333.232,817.704,330.879,817.704,327.982z"/>
	<path d="M825.592,321.211h0.977v1.072h-0.977V321.211z M825.688,324.412h0.784v8.164h-0.784V324.412z"/>
	<path d="M830.2,324.412h0.784v1.457c0.528-0.849,1.265-1.648,2.721-1.648c1.425,0,2.305,0.816,2.754,1.76
		c0.527-0.912,1.408-1.76,2.945-1.76c1.936,0,3.137,1.36,3.137,3.409v4.946h-0.784v-4.851c0-1.761-0.913-2.785-2.417-2.785
		c-1.377,0-2.577,1.057-2.577,2.882v4.754h-0.784v-4.898c0-1.697-0.929-2.737-2.385-2.737c-1.457,0-2.609,1.28-2.609,2.929v4.707
		H830.2V324.412z"/>
	<path d="M845.384,330.207v-0.032c0-1.696,1.456-2.657,3.569-2.657c1.137,0,1.921,0.145,2.705,0.352v-0.352
		c0-1.648-1.008-2.497-2.689-2.497c-0.992,0-1.809,0.272-2.561,0.656l-0.288-0.688c0.896-0.416,1.776-0.704,2.897-0.704
		c1.104,0,1.984,0.304,2.576,0.896c0.545,0.544,0.833,1.296,0.833,2.306v5.09h-0.769v-1.361c-0.561,0.785-1.568,1.553-3.121,1.553
		C847.017,332.768,845.384,331.903,845.384,330.207z M851.674,329.519v-0.929c-0.688-0.176-1.6-0.367-2.769-0.367
		c-1.729,0-2.689,0.768-2.689,1.904v0.031c0,1.186,1.12,1.873,2.369,1.873C850.25,332.031,851.674,331.007,851.674,329.519z"/>
	<path d="M856.04,333.92l0.464-0.641c0.977,0.753,2.098,1.153,3.297,1.153c1.873,0,3.202-1.073,3.202-3.169v-1.186
		c-0.704,1.009-1.793,1.889-3.409,1.889c-1.969,0-3.922-1.504-3.922-3.841v-0.032c0-2.354,1.953-3.873,3.922-3.873
		c1.633,0,2.736,0.863,3.409,1.824v-1.633h0.784v6.898c0,1.186-0.385,2.113-1.041,2.77c-0.703,0.705-1.76,1.089-2.961,1.089
		C858.425,335.169,857.16,334.752,856.04,333.92z M863.051,328.109v-0.031c0-1.889-1.681-3.105-3.377-3.105
		c-1.713,0-3.154,1.185-3.154,3.09v0.031c0,1.841,1.473,3.121,3.154,3.121C861.37,331.215,863.051,329.967,863.051,328.109z"/>
	<path d="M866.84,328.51v-0.031c0-2.369,1.664-4.258,3.873-4.258c2.289,0,3.746,1.856,3.746,4.273c0,0.145,0,0.191-0.017,0.32
		h-6.771c0.145,2.033,1.601,3.217,3.201,3.217c1.265,0,2.129-0.561,2.801-1.28l0.545,0.479c-0.832,0.896-1.809,1.537-3.377,1.537
		C868.696,332.768,866.84,331.055,866.84,328.51z M873.61,328.109c-0.112-1.648-1.057-3.169-2.929-3.169
		c-1.617,0-2.865,1.36-3.01,3.169H873.61z"/>
	<path d="M882.119,331.551l0.465-0.623c0.896,0.688,1.889,1.072,2.929,1.072c1.104,0,1.969-0.609,1.969-1.553v-0.032
		c0-0.96-1.024-1.313-2.161-1.633c-1.328-0.384-2.801-0.784-2.801-2.241v-0.031c0-1.312,1.104-2.258,2.689-2.258
		c0.977,0,2.08,0.353,2.896,0.896l-0.416,0.656c-0.752-0.496-1.648-0.816-2.513-0.816c-1.12,0-1.856,0.608-1.856,1.425v0.032
		c0,0.912,1.104,1.248,2.272,1.584c1.312,0.369,2.688,0.85,2.688,2.289v0.032c0,1.456-1.248,2.386-2.816,2.386
		C884.28,332.736,882.983,332.256,882.119,331.551z"/>
	<path d="M890.855,328.525v-0.031c0-2.289,1.776-4.273,4.209-4.273c2.418,0,4.178,1.953,4.178,4.241v0.032
		c0,2.289-1.776,4.273-4.209,4.273C892.615,332.768,890.855,330.814,890.855,328.525z M898.395,328.525v-0.031
		c0-1.969-1.473-3.537-3.361-3.537c-1.938,0-3.33,1.584-3.33,3.505v0.032c0,1.969,1.473,3.537,3.361,3.537
		C897.002,332.031,898.395,330.447,898.395,328.525z"/>
	<path d="M902.135,329.406v-4.994h0.785v4.85c0,1.682,0.943,2.785,2.593,2.785c1.601,0,2.833-1.216,2.833-2.912v-4.723h0.784v8.164
		h-0.784v-1.521c-0.545,0.961-1.457,1.713-2.945,1.713C903.336,332.768,902.135,331.359,902.135,329.406z"/>
	<path d="M912.744,324.412h0.783v2.321c0.641-1.456,2.002-2.513,3.618-2.449v0.864h-0.08c-1.89,0-3.538,1.425-3.538,4.082v3.346
		h-0.783V324.412z"/>
	<path d="M918.824,328.525v-0.031c0-2.289,1.824-4.273,4.162-4.273c1.536,0,2.496,0.704,3.266,1.504l-0.561,0.576
		c-0.705-0.72-1.505-1.344-2.721-1.344c-1.857,0-3.298,1.553-3.298,3.505v0.032c0,1.969,1.488,3.537,3.361,3.537
		c1.152,0,2.049-0.592,2.737-1.36l0.544,0.479c-0.833,0.945-1.825,1.617-3.329,1.617
		C920.633,332.768,918.824,330.814,918.824,328.525z"/>
	<path d="M928.361,328.51v-0.031c0-2.369,1.666-4.258,3.874-4.258c2.289,0,3.745,1.856,3.745,4.273c0,0.145,0,0.191-0.016,0.32
		h-6.771c0.144,2.033,1.601,3.217,3.201,3.217c1.265,0,2.129-0.561,2.802-1.28l0.543,0.479c-0.832,0.896-1.809,1.537-3.377,1.537
		C930.219,332.768,928.361,331.055,928.361,328.51z M935.133,328.109c-0.112-1.648-1.057-3.169-2.93-3.169
		c-1.616,0-2.865,1.36-3.009,3.169H935.133z"/>
	<path d="M937.914,334.305c2.529-1.553,3.938-3.65,3.938-6.322c0-2.674-1.408-4.771-3.938-6.323l0.336-0.528
		c2.817,1.602,4.434,3.953,4.434,6.852c0,2.896-1.616,5.25-4.434,6.85L937.914,334.305z"/>
</g>
</svg>
